<svg xmlns="http://www.w3.org/2000/svg" width="198.432" height="180.012" viewBox="0 0 198.432 180.012">
  <g id="Group_2278" data-name="Group 2278" transform="translate(-38.665 -149.987)">
    <path id="Path_6640" data-name="Path 6640" d="M144.06,190.74c-.18,13.09-2.84,26.52-5.76,39.92-.27,1.24-.54,1.81-2.05,1.35a214.709,214.709,0,0,1-42.71-17.86c-22.01-12.39-19.31-41.8-1.77-54.3,16.99-12.1,40.99-6.33,49.95,12.16,1.62,3.34,2.55,10.48,2.33,18.74Z" fill="#fe3e01"/>
    <path id="Path_6641" data-name="Path 6641" d="M144.11,290.84c-.08,6.2.03,12.43-2.89,18.18-10.21,20.14-39.79,23.71-54.56,6.57-9.89-11.47-11.69-25.63-4.83-38.45,2.87-5.37,7.65-8.79,12.75-11.75,12.93-7.51,26.84-12.73,41.08-17.17,1.53-.48,2.34-.43,2.73,1.45,2.83,13.6,5.67,27.19,5.72,41.17Z" fill="#88c443"/>
    <path id="Path_6642" data-name="Path 6642" d="M204.17,206.49a33.529,33.529,0,0,1,17.02,62.04c-10.76,6.75-21.47,6.71-32.45.47-13.4-7.61-25.23-17.25-36.54-27.59-.77-.71-1.7-1.19-.37-2.4,12.46-11.28,25.13-22.28,40.49-29.59,3.8-1.81,7.77-3.22,11.85-2.93Z" fill="#fed501"/>
    <path id="Path_6643" data-name="Path 6643" d="M153.07,220.95c.75-5.34,1.5-10.57,2.2-15.79a35.956,35.956,0,0,0,.68-6.5c-.52-10.48,4.62-18.57,11-26.06a104.053,104.053,0,0,1,20.94-19.3,36.853,36.853,0,0,1,4.35-2.42c3.2-1.55,3.62-1.28,3.82,2.39a53.715,53.715,0,0,1-1.01,13.02,110.962,110.962,0,0,1-8.3,26.65,23,23,0,0,1-9.72,10.91c-7.58,4.2-14.3,9.71-21.06,15.1a8.383,8.383,0,0,1-2.89,2.01Z" fill="#2089e4"/>
    <path id="Path_6644" data-name="Path 6644" d="M120.89,240.15c-7.43,2.78-14.24,5.25-20.76,8.41a25.113,25.113,0,0,0-3.29,1.62c-6.66,4.57-14.03,4.94-21.62,3.5-9.89-1.88-19.68-4.14-28.89-8.39a35.909,35.909,0,0,1-5.93-3.33c-2.3-1.66-2.3-2.07-.08-3.75,3.81-2.9,8.2-4.65,12.67-6.18,9.12-3.12,18.41-5.61,28.09-6.15,4.45-.25,8.79.12,12.92,2.43,7.86,4.41,16.27,7.68,24.71,10.82.55.2,1.06.48,2.19,1Z" fill="#2089e4"/>
    <path id="Path_6646" data-name="Path 6646" d="M152.92,258.78c5.55,4.26,10.59,8.15,15.64,12.02a13.637,13.637,0,0,0,2.13,1.53c9.47,4.63,13.98,13.03,17.2,22.42,3.15,9.19,5.83,18.49,6.25,28.28.1,2.35.8,5.56-.99,6.66-1.82,1.12-4.33-1.07-6.26-2.32-10.01-6.52-18.19-15-25.48-24.36a22.92,22.92,0,0,1-5.33-15.43c.31-8.74-1.24-17.4-2.74-26.01C153.21,260.81,153.11,260.04,152.92,258.78Z" fill="#2089e4"/>
  </g>
</svg>
